<svg xmlns="http://www.w3.org/2000/svg" xmlns:xlink="http://www.w3.org/1999/xlink" viewBox="0 0 1024 1024"><defs><style>.cls-1{fill:#424242;}.cls-2{fill:#939393;}.cls-3{fill:url(#linear-gradient);}.cls-4{fill:#232323;}.cls-5{fill:#f8c633;}.cls-6{fill:#fbe399;}.cls-6,.cls-7,.cls-8{fill-rule:evenodd;}.cls-7{fill:#ff5e65;}.cls-8{fill:#fff;}</style><linearGradient id="linear-gradient" x1="1882.98" y1="743.36" x2="-402.53" y2="20.02" gradientTransform="translate(-453.53 -95.36) rotate(11.18)" gradientUnits="userSpaceOnUse"><stop offset="0"/><stop offset="0.22" stop-color="#1a1a1b"/><stop offset="0.55" stop-color="#3c3c3e"/><stop offset="0.82" stop-color="#505153"/><stop offset="1" stop-color="#58595b"/></linearGradient></defs><title>icon</title><g id="Artwork_-_Edit_Me" data-name="Artwork - Edit Me"><rect class="cls-1" x="-2" y="-2" width="1029" height="1029"/><path class="cls-1" d="M-787.15-264.27-983.7,728.51,1320,1183.69l196.56-992.78Zm-65.29,972-66.23-13.09,13.09-66.23,66.23,13.09Zm167-843.07L-751.7-148.4l13.09-66.23,66.23,13.09Zm-48.91,866.4L-800.61,718l13.09-66.23,66.23,13.08ZM-567.4-112l-66.23-13.09,13.09-66.23,66.23,13.09Zm-48.91,866.4-66.23-13.09,13.09-66.23,66.23,13.09Zm167-843.07-66.23-13.09L-502.48-168l66.23,13.09Zm-48.91,866.4-66.23-13.09,13.09-66.23,66.23,13.09Zm167-843.08L-397.5-78.41l13.09-66.23,66.23,13.09Zm-48.91,866.4L-446.41,788l13.09-66.23,66.23,13.08ZM-213.21-42l-66.23-13.09,13.09-66.23,66.23,13.09Zm-48.91,866.4-66.23-13.09,13.09-66.23L-249,758.17Zm167-843.07-66.23-13.09L-148.29-98-82.06-84.9Zm-48.91,866.4-66.23-13.09,13.09-66.23L-131,781.5ZM22.92,4.66-43.31-8.43l13.09-66.23L36-61.57ZM-26,871.06-92.22,858l13.09-66.23,66.23,13.08ZM141,28,74.75,14.9,87.84-51.33l66.23,13.09ZM92.08,894.39,25.85,881.3l13.09-66.23,66.23,13.09Zm167-843.08L192.82,38.23,205.91-28l66.23,13.09Zm-48.91,866.4-66.23-13.09L157,838.4l66.23,13.09Zm167-843.07L310.88,61.56,324-4.67,390.2,8.41ZM328.21,941,262,928l13.09-66.23,66.23,13.09ZM495.18,98,429,84.88,442,18.65l66.23,13.09Zm-48.91,866.4L380,951.29l13.09-66.23,66.23,13.08Zm167-843.07L547,108.21,560.1,42l66.23,13.09ZM564.34,987.7l-66.23-13.09,13.09-66.23,66.23,13.09Zm167-843.07-66.23-13.09,13.08-66.23L744.4,78.39ZM682.4,1011l-66.23-13.09,13.09-66.23,66.23,13.08ZM849.38,168l-66.23-13.09,13.09-66.23,66.23,13.09Zm-48.91,866.4-66.23-13.09L747.32,955l66.23,13.09Zm167-843.08L901.21,178.2,914.3,112l66.23,13.09Zm-48.91,866.4L852.3,1044.6l13.09-66.23,66.23,13.09Zm167-843.08-66.23-13.08,13.09-66.23,66.23,13.09ZM1036.6,1081l-66.23-13.09,13.09-66.23,66.23,13.08Zm167-843.07-66.23-13.09,13.09-66.23,66.23,13.08Zm-48.91,866.4-66.23-13.09,13.09-66.23,66.23,13.09Zm167-843.08-66.23-13.09,13.09-66.23L1334.72,195Zm-48.91,866.4-66.23-13.08,13.09-66.23,66.23,13.08Zm167-843.07-66.23-13.09,13.09-66.23,66.23,13.08Z"/><rect class="cls-2" x="-2" y="-2" width="1029" height="1029"/><path class="cls-3" d="M-787.15-264.27-983.7,728.51,1320,1183.69l196.56-992.78Zm-65.29,972-66.23-13.09,13.09-66.23,66.23,13.09Zm167-843.07L-751.7-148.4l13.09-66.23,66.23,13.09Zm-48.91,866.4L-800.61,718l13.09-66.23,66.23,13.08ZM-567.4-112l-66.23-13.09,13.09-66.23,66.23,13.09Zm-48.91,866.4-66.23-13.09,13.09-66.23,66.23,13.09Zm167-843.07-66.23-13.09L-502.48-168l66.23,13.09Zm-48.91,866.4-66.23-13.09,13.09-66.23,66.23,13.09Zm167-843.08L-397.5-78.41l13.09-66.23,66.23,13.09Zm-48.91,866.4L-446.41,788l13.09-66.23,66.23,13.08ZM-213.21-42l-66.23-13.09,13.09-66.23,66.23,13.09Zm-48.91,866.4-66.23-13.09,13.09-66.23L-249,758.17Zm167-843.07-66.23-13.09L-148.29-98-82.06-84.9Zm-48.91,866.4-66.23-13.09,13.09-66.23L-131,781.5ZM22.92,4.66-43.31-8.43l13.09-66.23L36-61.57ZM-26,871.06-92.22,858l13.09-66.23,66.23,13.08ZM141,28,74.75,14.9,87.84-51.33l66.23,13.09ZM92.08,894.39,25.85,881.3l13.09-66.23,66.23,13.09Zm167-843.08L192.82,38.23,205.91-28l66.23,13.09Zm-48.91,866.4-66.23-13.09L157,838.4l66.23,13.09Zm167-843.07L310.88,61.56,324-4.67,390.2,8.41ZM328.21,941,262,928l13.09-66.23,66.23,13.09ZM495.18,98,429,84.88,442,18.65l66.23,13.09Zm-48.91,866.4L380,951.29l13.09-66.23,66.23,13.08Zm167-843.07L547,108.21,560.1,42l66.23,13.09ZM564.34,987.7l-66.23-13.09,13.09-66.23,66.23,13.09Zm167-843.07-66.23-13.09,13.08-66.23L744.4,78.39ZM682.4,1011l-66.23-13.09,13.09-66.23,66.23,13.08ZM849.38,168l-66.23-13.09,13.09-66.23,66.23,13.09Zm-48.91,866.4-66.23-13.09L747.32,955l66.23,13.09Zm167-843.08L901.21,178.2,914.3,112l66.23,13.09Zm-48.91,866.4L852.3,1044.6l13.09-66.23,66.23,13.09Zm167-843.08-66.23-13.08,13.09-66.23,66.23,13.09ZM1036.6,1081l-66.23-13.09,13.09-66.23,66.23,13.08Zm167-843.07-66.23-13.09,13.09-66.23,66.23,13.08Zm-48.91,866.4-66.23-13.09,13.09-66.23,66.23,13.09Zm167-843.08-66.23-13.09,13.09-66.23L1334.72,195Zm-48.91,866.4-66.23-13.08,13.09-66.23,66.23,13.08Zm167-843.07-66.23-13.09,13.09-66.23,66.23,13.08Z"/></g><g id="Mask"><path class="cls-4" d="M0,799v225H225C100.74,1024,0,923.26,0,799Z"/><path class="cls-4" d="M225,0H0V225C0,100.74,100.74,0,225,0Z"/><path class="cls-4" d="M799,0c124.27,0,225,100.74,225,225V0Z"/><path class="cls-4" d="M799,1024h225V799C1024,923.26,923.26,1024,799,1024Z"/><path class="cls-5" d="M361.07,383.23c-79.57-34.36-68.16-117-39.72-141.68,56.57-49,106.72,4.89,124.09,39.08C465.3,229.33,485.15,170.71,552.16,178c64.52,7.33,69.49,36.64,76.93,87.94,8.16-88.1,213.22-62.42,115.46,81.86"/><path class="cls-6" d="M279.18,412.54c-52.11-17.1-42.19-95.27,0-114.81,37.22-14.66,98.75-14.66,119.12,31.76,7.44-44,7.44-100.15,67-102.59,57.08-2.44,62,44,64.52,87.94,18.85-48.4,76.93-53.74,79.41,4.89,17.37-56.18,76.3-78.61,134-48.85,52.11,26.87,49.63,149-9.93,141.68"/><polygon class="cls-7" points="675.52 824 347.35 824 265.68 408.43 752.08 408.43 675.52 824"/><path class="cls-8" d="M534,777.26a20.16,20.16,0,0,1-20.17,20.15h-9.17a20.16,20.16,0,0,1-20.17-20.15V449.56a20.16,20.16,0,0,1,20.17-20.15h9.17A20.16,20.16,0,0,1,534,449.56Z"/><path class="cls-8" d="M421.72,775.23A20.17,20.17,0,0,1,404.55,798l-9.08,1.28a20.17,20.17,0,0,1-22.78-17.17L327,457.2a20.16,20.16,0,0,1,17.17-22.78l9.08-1.28a20.16,20.16,0,0,1,22.78,17.17Z"/><path class="cls-8" d="M691.53,457.19a20.17,20.17,0,0,0-17.17-22.79l-9.08-1.28A20.17,20.17,0,0,0,642.5,450.3L596.83,775.22A20.16,20.16,0,0,0,614,798l9.08,1.28a20.16,20.16,0,0,0,22.78-17.17Z"/></g></svg>